<?xml version="1.0" standalone="no"?>
<!DOCTYPE svg PUBLIC "-//W3C//DTD SVG 1.1//EN" "http://www.w3.org/Graphics/SVG/1.1/DTD/svg11.dtd">

<svg width="800" height="600" version="1.1" xmlns="http://www.w3.org/2000/svg">
	<ellipse stroke="black" stroke-width="1" fill="none" cx="172.5" cy="168.5" rx="30" ry="30"/>
	<text x="167.5" y="174.5" font-family="Times New Roman" font-size="20">0</text>
	<ellipse stroke="black" stroke-width="1" fill="none" cx="353.5" cy="168.5" rx="30" ry="30"/>
	<text x="348.5" y="174.5" font-family="Times New Roman" font-size="20">1</text>
	<ellipse stroke="black" stroke-width="1" fill="none" cx="353.5" cy="330.5" rx="30" ry="30"/>
	<text x="346.5" y="336.5" font-family="Times New Roman" font-size="20">A</text>
	<ellipse stroke="black" stroke-width="1" fill="none" cx="353.5" cy="330.5" rx="24" ry="24"/>
	<polygon stroke="black" stroke-width="1" points="202.5,168.5 323.5,168.5"/>
	<polygon fill="black" stroke-width="1" points="323.5,168.5 315.5,163.5 315.5,173.5"/>
	<text x="255.5" y="189.5" font-family="Times New Roman" font-size="20">H</text>
	<path stroke="black" stroke-width="1" fill="none" d="M 380.297,155.275 A 22.5,22.5 0 1 1 380.297,181.725"/>
	<text x="426.5" y="174.5" font-family="Times New Roman" font-size="20">H</text>
	<polygon fill="black" stroke-width="1" points="380.297,181.725 383.83,190.473 389.708,182.382"/>
	<polygon stroke="black" stroke-width="1" points="353.5,198.5 353.5,300.5"/>
	<polygon fill="black" stroke-width="1" points="353.5,300.5 358.5,292.5 348.5,292.5"/>
	<text x="326.5" y="255.5" font-family="Times New Roman" font-size="20">'H'</text>
</svg>
