<?xml version="1.0" standalone="no"?>
<!DOCTYPE svg PUBLIC "-//W3C//DTD SVG 1.1//EN" "http://www.w3.org/Graphics/SVG/1.1/DTD/svg11.dtd">

<svg width="800" height="600" version="1.1" xmlns="http://www.w3.org/2000/svg">
	<ellipse stroke="black" stroke-width="1" fill="none" cx="162.5" cy="58.5" rx="30" ry="30"/>
	<text x="157.5" y="64.5" font-family="Times New Roman" font-size="20">0</text>
	<ellipse stroke="black" stroke-width="1" fill="none" cx="389.5" cy="58.5" rx="30" ry="30"/>
	<text x="384.5" y="64.5" font-family="Times New Roman" font-size="20">1</text>
	<ellipse stroke="black" stroke-width="1" fill="none" cx="272.5" cy="248.5" rx="30" ry="30"/>
	<text x="267.5" y="254.5" font-family="Times New Roman" font-size="20">2</text>
	<ellipse stroke="black" stroke-width="1" fill="none" cx="389.5" cy="427.5" rx="30" ry="30"/>
	<text x="384.5" y="433.5" font-family="Times New Roman" font-size="20">3</text>
	<ellipse stroke="black" stroke-width="1" fill="none" cx="162.5" cy="427.5" rx="30" ry="30"/>
	<text x="157.5" y="433.5" font-family="Times New Roman" font-size="20">4</text>
	<ellipse stroke="black" stroke-width="1" fill="none" cx="470.5" cy="248.5" rx="30" ry="30"/>
	<text x="465.5" y="254.5" font-family="Times New Roman" font-size="20">5</text>
	<ellipse stroke="black" stroke-width="1" fill="none" cx="470.5" cy="58.5" rx="30" ry="30"/>
	<text x="465.5" y="64.5" font-family="Times New Roman" font-size="20">6</text>
	<ellipse stroke="black" stroke-width="1" fill="none" cx="711.5" cy="248.5" rx="30" ry="30"/>
	<text x="706.5" y="254.5" font-family="Times New Roman" font-size="20">7</text>
	<ellipse stroke="black" stroke-width="1" fill="none" cx="711.5" cy="58.5" rx="30" ry="30"/>
	<text x="704.5" y="64.5" font-family="Times New Roman" font-size="20">A</text>
	<ellipse stroke="black" stroke-width="1" fill="none" cx="711.5" cy="58.5" rx="24" ry="24"/>
	<polygon stroke="black" stroke-width="1" points="192.5,58.5 359.5,58.5"/>
	<polygon fill="black" stroke-width="1" points="359.5,58.5 351.5,53.5 351.5,63.5"/>
	<text x="264.5" y="79.5" font-family="Times New Roman" font-size="20">+,-</text>
	<polygon stroke="black" stroke-width="1" points="373.77,84.045 288.23,222.955"/>
	<polygon fill="black" stroke-width="1" points="288.23,222.955 296.683,218.765 288.168,213.521"/>
	<text x="314.5" y="146.5" font-family="Times New Roman" font-size="20">d</text>
	<polygon stroke="black" stroke-width="1" points="177.531,84.463 257.469,222.537"/>
	<polygon fill="black" stroke-width="1" points="257.469,222.537 257.788,213.109 249.133,218.119"/>
	<text x="224.5" y="147.5" font-family="Times New Roman" font-size="20">d</text>
	<path stroke="black" stroke-width="1" fill="none" d="M 299.297,235.275 A 22.5,22.5 0 1 1 299.297,261.725"/>
	<text x="345.5" y="254.5" font-family="Times New Roman" font-size="20">d</text>
	<polygon fill="black" stroke-width="1" points="299.297,261.725 302.83,270.473 308.708,262.382"/>
	<polygon stroke="black" stroke-width="1" points="288.914,273.612 373.086,402.388"/>
	<polygon fill="black" stroke-width="1" points="373.086,402.388 372.895,392.956 364.524,398.428"/>
	<text x="312.5" y="357.5" font-family="Times New Roman" font-size="20">'.'</text>
	<polygon stroke="black" stroke-width="1" points="359.5,427.5 192.5,427.5"/>
	<polygon fill="black" stroke-width="1" points="192.5,427.5 200.5,432.5 200.5,422.5"/>
	<text x="271.5" y="418.5" font-family="Times New Roman" font-size="20">d</text>
	<path stroke="black" stroke-width="1" fill="none" d="M 149.275,400.703 A 22.5,22.5 0 1 1 175.725,400.703"/>
	<text x="157.5" y="351.5" font-family="Times New Roman" font-size="20">d</text>
	<polygon fill="black" stroke-width="1" points="175.725,400.703 184.473,397.17 176.382,391.292"/>
	<path stroke="black" stroke-width="1" fill="none" d="M 489.874,271.362 A 184.214,184.214 0 1 1 172.773,455.651"/>
	<polygon fill="black" stroke-width="1" points="489.874,271.362 490.467,280.777 498.597,274.954"/>
	<text x="437.5" y="558.5" font-family="Times New Roman" font-size="20">'E'</text>
	<polygon stroke="black" stroke-width="1" points="470.5,218.5 470.5,88.5"/>
	<polygon fill="black" stroke-width="1" points="470.5,88.5 465.5,96.5 475.5,96.5"/>
	<text x="475.5" y="159.5" font-family="Times New Roman" font-size="20">+,-</text>
	<polygon stroke="black" stroke-width="1" points="500.5,248.5 681.5,248.5"/>
	<polygon fill="black" stroke-width="1" points="681.5,248.5 673.5,243.5 673.5,253.5"/>
	<text x="586.5" y="239.5" font-family="Times New Roman" font-size="20">0</text>
	<path stroke="black" stroke-width="1" fill="none" d="M 738.297,235.275 A 22.5,22.5 0 1 1 738.297,261.725"/>
	<text x="784.5" y="254.5" font-family="Times New Roman" font-size="20">0</text>
	<polygon fill="black" stroke-width="1" points="738.297,261.725 741.83,270.473 747.708,262.382"/>
	<polygon stroke="black" stroke-width="1" points="711.5,218.5 711.5,88.5"/>
	<polygon fill="black" stroke-width="1" points="711.5,88.5 706.5,96.5 716.5,96.5"/>
	<text x="716.5" y="159.5" font-family="Times New Roman" font-size="20">1-9</text>
	<polygon stroke="black" stroke-width="1" points="500.5,58.5 681.5,58.5"/>
	<polygon fill="black" stroke-width="1" points="681.5,58.5 673.5,53.5 673.5,63.5"/>
	<text x="577.5" y="79.5" font-family="Times New Roman" font-size="20">1-9</text>
	<path stroke="black" stroke-width="1" fill="none" d="M 738.297,45.275 A 22.5,22.5 0 1 1 738.297,71.725"/>
	<text x="784.5" y="64.5" font-family="Times New Roman" font-size="20">d</text>
	<polygon fill="black" stroke-width="1" points="738.297,71.725 741.83,80.473 747.708,72.382"/>
	<path stroke="black" stroke-width="1" fill="none" d="M 484.58,222.02 A 347.266,347.266 0 0 1 682.465,66.011"/>
	<polygon fill="black" stroke-width="1" points="682.465,66.011 673.354,63.565 676.274,73.129"/>
	<text x="537.5" y="116.5" font-family="Times New Roman" font-size="20">1-9</text>
	<path stroke="black" stroke-width="1" fill="none" d="M 682.74,239.991 A 376.494,376.494 0 0 1 485.487,84.479"/>
	<polygon fill="black" stroke-width="1" points="682.74,239.991 676.774,232.683 673.557,242.151"/>
	<text x="555.5" y="200.5" font-family="Times New Roman" font-size="20">0</text>
</svg>
